PathFileType	4	(X/Y/Z)	Run_300 02
DataRate	CameraRate	NumFrames	NumMarkers	Units	OrigDataRate	OrigDataStartFrame	OrigNumFrames
100	100	8	42	mm	100	113	128
Frame#	Time	RASI			LPSI			RPSI			RTH1			RTH2			RTH3			LTH1			LTH2			LTH3			RTB1			RTB2			RTB3			LTB1			LTB2			LTB3			RCAL			RTOE			RMT5			LCAL			LTOE			LMT5			LACR			RACR			CLAV			C7			RUA1			RUA2			RUA3			RLEL			RMEL			LUA1			LUA2			LUA3			LLEL			LMEL			RFAsuperior			RFAradius			RFAulna			LFAsuperior			LFAradius			LFAulna			LASI			
		X1	Y1	Z1	X2	Y2	Z2	X3	Y3	Z3	X4	Y4	Z4	X5	Y5	Z5	X6	Y6	Z6	X7	Y7	Z7	X8	Y8	Z8	X9	Y9	Z9	X10	Y10	Z10	X11	Y11	Z11	X12	Y12	Z12	X13	Y13	Z13	X14	Y14	Z14	X15	Y15	Z15	X16	Y16	Z16	X17	Y17	Z17	X18	Y18	Z18	X19	Y19	Z19	X20	Y20	Z20	X21	Y21	Z21	X22	Y22	Z22	X23	Y23	Z23	X24	Y24	Z24	X25	Y25	Z25	X26	Y26	Z26	X27	Y27	Z27	X28	Y28	Z28	X29	Y29	Z29	X30	Y30	Z30	X31	Y31	Z31	X32	Y32	Z32	X33	Y33	Z33	X34	Y34	Z34	X35	Y35	Z35	X36	Y36	Z36	X37	Y37	Z37	X38	Y38	Z38	X39	Y39	Z39	X40	Y40	Z40	X41	Y41	Z41	X42	Y42	Z42	

109	1.6	1036.844259	1066.691353	-229.081613	861.0690530000001	1126.980656	-398.729748	872.783062	1122.412712	-286.022256	957.646528	944.319801	-176.861838	874.659102	809.179048	-194.628897	879.701516	653.477002	-213.986682	973.4623810000001	943.332988	-530.095291	952.709847	778.9131180000001	-473.740557	1043.08756	666.115029	-471.14232	757.721722	431.532932	-280.356508	680.892182	477.458481	-208.455314	577.872734	363.536037	-279.141834	1159.782289	468.295452	-403.021203	1093.021308	343.296374	-441.13496	1173.350104	253.016253	-379.646514	426.394214	417.635625	-257.422717	466.573331	189.161295	-328.170696	429.147359	206.532154	-230.197575	1083.953952	92.822112	-335.115347	1312.911065	150.021179	-338.639916	1281.040918	67.790993	-410.534117	973.285419	1563.819883	-504.231145	1047.197522	1536.65415	-194.64413	1072.492207	1504.318185	-332.503152	950.764767	1573.21365	-340.505179	958.986076	1442.520914	-108.263075	1007.747158	1382.306809	-93.67044199999999	954.840151	1308.825023	-35.099171	932.7872159999999	1245.664707	-5.020321	903.784568	1223.086392	-88.839286	846.071407	1507.257722	-531.829418	844.200412	1428.501844	-566.601	751.510212	1391.635785	-565.533069	711.943703	1331.699145	-578.020772	720.114377	1304.645954	-491.919431	1026.269882	1212.411352	-51.541222	1130.733302	1225.497428	-197.521035	1143.490904	1171.991143	-154.8576	765.384474	1270.54011	-595.358359	949.648921	1233.409123	-559.650067	920.29881	1177.169006	-594.233302	1013.735714	1067.047038	-475.478016	
110	1.61	1037.093476	1058.902355	-230.211535	860.97519	1119.2737	-398.491951	872.746051	1114.787173	-285.826743	959.921323	936.826669	-177.421256	879.94136	799.642569	-193.214127	889.908193	644.076293	-212.089914	971.386124	935.866833	-530.796072	951.517038	771.746724	-472.837717	1042.168498	659.390631	-470.719828	767.133889	427.031491	-278.293792	693.162367	477.806904	-207.249716	583.7765869999999	369.433189	-276.168677	1154.83701	458.170481	-403.909309	1083.39279	335.263045	-440.268828	1161.579611	242.69119	-379.472468	434.961051	431.804889	-253.699221	464.369815	201.576031	-324.004362	427.681813	220.868524	-226.323921	1066.21955	91.440712	-332.869124	1297.479469	131.228515	-336.369186	1260.683935	54.480759	-409.111764	973.337465	1555.479766	-506.090705	1046.196581	1529.475032	-195.423943	1072.144901	1497.226371	-333.425292	950.280947	1566.254984	-342.205936	955.372433	1436.984155	-109.61554	1003.257396	1376.142104	-93.867874	948.829077	1303.492208	-35.873408	924.983311	1241.522438	-5.178989	896.763941	1218.765382	-88.922172	846.499915	1496.800186	-535.0861619999999	846.499286	1417.417436	-568.998601	754.557537	1378.728644	-568.789912	715.95345	1318.405432	-581.319765	723.839871	1291.73009	-495.210367	1017.81917	1202.943909	-49.055769	1126.666057	1207.151489	-192.92051	1134.992927	1154.037853	-148.650535	770.2412420000001	1257.843951	-597.986977	954.789876	1223.211194	-560.711811	926.329334	1166.544785	-595.299273	1013.716658	1058.660704	-474.442288	
111	1.62	1037.364203	1050.530453	-231.208294	860.748281	1110.823341	-398.278804	872.664611	1106.471108	-285.476439	961.642016	928.438418	-178.33205	884.876497	789.436554	-192.037757	900.0809379999999	634.2112069999999	-209.884362	969.70886	927.644402	-530.302836	949.94925	763.908405	-472.056518	1040.854761	651.9376150000001	-471.097685	777.860861	422.017303	-275.109518	706.572532	477.307963	-205.32391	591.8846569999999	374.282097	-272.96683	1150.151946	447.415185	-405.187902	1073.047992	326.942893	-438.459435	1148.4027	231.995923	-377.75333	445.591433	444.318456	-250.83182	465.847404	212.499086	-319.296898	429.3913	234.091009	-222.080207	1045.213144	92.227324	-328.86496	1278.796499	109.73023	-333.01894	1235.926266	41.382702	-408.723416	973.388723	1546.065815	-508.041392	1044.871495	1521.495164	-196.042366	1071.845303	1489.291282	-334.282727	949.457765	1558.102844	-343.944701	951.204431	1430.348257	-111.169148	998.2739350000001	1368.892135	-94.077364	942.303702	1297.150325	-36.672558	916.674095	1236.645823	-5.367177	889.366905	1213.50667	-88.990887	847.064888	1485.231958	-538.513007	849.1688349999999	1405.151993	-571.7587129999999	758.091066	1364.525156	-572.54421	720.544654	1303.75399	-585.126673	727.862436	1277.640091	-498.846515	1008.696531	1192.882269	-46.027549	1121.443408	1187.21554	-187.266136	1125.27247	1134.827686	-141.437714	775.725694	1243.692436	-601.047874	960.376357	1211.591271	-561.779422	932.879337	1154.457753	-596.3151810000001	1013.576516	1049.523052	-473.473881	
112	1.63	1037.5007	1041.721028	-231.708975	859.7111630000001	1102.454853	-397.905841	872.18135	1097.768088	-284.865197	962.500187	919.254177	-179.69487	889.5977339999999	778.801587	-191.497427	910.208725	624.0313640000001	-207.669162	968.350903	919.461107	-528.770951	948.261788	756.035442	-472.072676	1040.017728	644.662423	-472.022003	789.855078	416.650482	-271.096923	720.826985	476.14194	-202.636767	601.898516	378.041414	-269.421108	1146.762104	437.913335	-404.9013	1063.966425	320.376207	-435.516576	1134.307481	222.893666	-373.251341	457.693792	455.011167	-248.783104	471.290221	221.707298	-314.03991	434.531262	245.831745	-217.505246	1021.373078	93.89284499999999	-323.608675	1256.682945	91.545929	-328.421409	1208.809486	34.058185	-409.240646	973.518533	1535.738474	-510.141023	1043.196102	1512.904592	-196.540999	1071.738988	1480.758683	-334.925915	948.357816	1549.01797	-345.812733	946.5995349999999	1422.774607	-112.938006	992.876221	1360.718419	-94.38871899999999	935.363162	1289.973859	-37.663619	907.916311	1231.218231	-5.754864	881.575111	1207.462706	-89.280017	847.83522	1472.559146	-542.2152610000001	852.241345	1391.803281	-574.834057	762.15813	1349.125829	-576.6875250000001	725.756854	1287.966986	-589.385984	732.219483	1262.660881	-502.64013	998.9497280000001	1182.334416	-42.56629	1115.028322	1165.81155	-180.544017	1114.325521	1114.627093	-133.120324	781.87985	1228.28049	-604.460449	966.41497	1198.605884	-562.922424	939.9445030000001	1140.925924	-597.289328	1012.594143	1040.427311	-472.28635	
113	1.64	1037.253357	1032.607863	-231.636133	857.426655	1094.954026	-397.132173	871.013179	1089.09206	-284.029116	962.581813	909.691952	-181.524311	894.333036	768.293264	-191.602785	920.482765	613.90008	-205.522349	966.508693	912.267551	-527.5315419999999	947.04467	748.971438	-472.920078	1040.336254	638.486044	-472.853421	803.0363149999999	411.172615	-266.72877	735.90028	474.471603	-199.429918	613.702619	380.806571	-265.765268	1144.613271	431.148384	-401.888123	1056.718465	317.491312	-432.282587	1119.09139	217.0563	-367.039544	471.008114	463.747806	-247.412355	480.625493	229.001276	-308.257453	443.214362	255.762545	-212.626531	995.236636	95.607891	-318.750093	1231.538695	80.905472	-323.618354	1180.776011	33.488329	-409.933526	973.725992	1524.988815	-512.377414	1041.092447	1504.008019	-196.986654	1071.811934	1472.068284	-335.312426	947.275382	1539.860149	-347.933442	941.718376	1414.654869	-114.883433	987.135538	1352.038253	-94.794257	928.100655	1282.252399	-39.008867	898.761628	1225.49763	-6.53555	873.381203	1200.874745	-89.954548	849.036927	1458.660062	-546.4487	855.8611059999999	1377.436454	-578.044553	766.92877	1332.547077	-581.077793	731.618385	1271.27206	-594.0578860000001	737.155172	1247.022333	-506.602747	988.503195	1171.349693	-38.913687	1107.431267	1143.151774	-173.105829	1102.178508	1093.928937	-123.837971	788.667449	1211.776573	-608.098092	972.951319	1184.312322	-564.229479	947.524737	1125.972116	-598.161125	1010.344585	1032.185168	-470.652006	
114	1.65	1036.285746	1023.579951	-231.42762	854.2191800000001	1088.54056	-395.959579	869.099821	1080.93258	-283.140062	962.275495	900.6547440000001	-183.549054	899.162749	758.611939	-192.155901	931.1043539999999	604.502225	-203.407033	963.54529	906.388025	-527.753867	946.498291	743.113591	-473.806715	1041.3497	633.533175	-473.093796	817.330778	405.973036	-262.408615	752.019749	472.509226	-196.071993	627.306829	382.700219	-262.348349	1142.079132	426.814861	-396.918814	1049.582053	318.150769	-429.914613	1102.070175	214.368186	-361.646423	485.497941	470.351851	-246.47083	493.500929	234.220185	-302.108563	455.458616	263.55322	-207.45855	967.545266	97.17545699999999	-315.567421	1204.422868	77.156655	-320.155127	1152.160494	35.888337	-409.783125	973.843402	1514.579094	-514.618696	1038.518492	1495.399491	-197.358742	1071.835758	1463.840466	-335.521449	946.583948	1531.771512	-350.299561	936.79008	1406.613007	-116.900981	981.200408	1343.521119	-95.25226499999999	920.543231	1274.480545	-40.753017	889.318931	1219.78192	-7.842899	864.989325	1194.112182	-91.121999	851.039201	1443.697343	-551.357566	860.295374	1362.270043	-581.061394	772.682534	1314.93065	-585.532077	738.24332	1253.928268	-599.056818	743.082552	1230.830886	-510.920091	977.285332	1160.07273	-35.358246	1098.624847	1119.822927	-165.324105	1088.907124	1073.458231	-114.03554	796.044569	1194.297629	-611.825954	980.09127	1168.771232	-565.639867	955.60258	1109.735222	-598.813392	1007.17813	1025.042732	-468.62569	
115	1.66	1034.295128	1015.422271	-231.60498	851.02845	1082.905017	-394.838526	866.533678	1073.794533	-282.422583	961.84809	893.2318	-185.194016	903.9666089999999	750.27287	-192.949508	942.172592	596.67989	-201.295922	959.803408	901.38526	-529.235177	945.8599850000001	738.161751	-473.832461	1041.351316	629.028637	-472.684696	832.832045	401.619978	-258.483473	769.346454	470.51495	-192.834089	642.743389	383.76016	-259.387232	1136.845373	422.834684	-392.148198	1039.77984	319.738276	-428.819693	1082.653803	212.783137	-358.670337	501.087872	474.643515	-245.698708	509.498235	237.270106	-295.881817	471.249271	268.88816	-202.043828	939.003735	98.505183	-314.07058	1176.357272	76.44801099999999	-318.609455	1122.811659	37.206898	-408.502755	973.620647	1505.271403	-516.704132	1035.618888	1487.822496	-197.56897	1071.528063	1456.650191	-335.63877	946.387564	1525.448584	-352.628916	932.069271	1399.340569	-118.845855	975.313571	1335.909129	-95.778564	912.660039	1267.399195	-42.75576	879.778175	1214.426681	-9.659243	856.720736	1187.653179	-92.782912	854.082197	1428.486176	-556.482348	865.767793	1346.958049	-583.541567	779.654036	1296.870595	-589.890073	745.998504	1236.337136	-604.27166	750.410743	1214.204578	-515.796153	965.441917	1148.959671	-32.160034	1088.403274	1096.754661	-157.330914	1074.560029	1053.991049	-104.230172	804.194915	1176.099506	-615.560326	988.041298	1152.135287	-566.844637	964.225861	1092.565081	-599.164295	1004.040383	1018.690252	-466.675401	
116	1.67	1031.236715	1009.006928	-232.052467	848.6616770000001	1077.866581	-394.439898	863.436837	1068.094723	-282.101469	961.117178	888.014635	-186.006526	908.615528	743.441826	-193.775959	953.718482	591.0565779999999	-199.209249	956.327462	896.840552	-530.727403	943.775571	733.740867	-472.917953	1038.450731	624.151162	-471.875895	849.800981	398.70089	-255.240485	787.633455	468.63976	-189.76436	659.962607	383.958042	-256.959096	1127.417822	417.173412	-389.281548	1025.753007	319.293978	-428.479166	1060.759476	210.122637	-357.598316	517.511423	476.516011	-244.970252	528.310066	238.145871	-289.916506	490.514146	271.570719	-196.510909	909.984773	99.46348999999999	-313.515486	1147.723608	75.680723	-318.163968	1092.857432	36.643393	-407.07813	972.979862	1497.567017	-518.540463	1032.710832	1481.764489	-197.592948	1070.779409	1450.772631	-335.655819	946.328098	1520.744855	-354.490629	927.6947290000001	1393.388154	-120.584417	969.667611	1329.775562	-96.42918400000001	904.440063	1261.836343	-44.804141	870.322369	1209.928363	-11.805326	848.699833	1182.030137	-94.760289	857.932511	1414.277743	-560.61825	872.193654	1332.676767	-585.372655	787.850494	1279.517685	-594.094698	755.458723	1219.176562	-609.604119	759.307806	1197.579363	-521.24366	953.353961	1138.863351	-29.498521	1076.418734	1074.893077	-149.222825	1059.084169	1036.187997	-94.751456	813.693536	1157.949251	-619.2958170000001	997.094355	1134.838919	-567.396821	973.663417	1075.050481	-599.185881	1001.729015	1012.934375	-465.455002	
